<?xml version="1.0" encoding="UTF-8" standalone="no"?><!DOCTYPE svg PUBLIC "-//W3C//DTD SVG 1.1//EN" "http://www.w3.org/Graphics/SVG/1.1/DTD/svg11.dtd"><!-- Generated by graphviz version 2.40.1 (20161225.0304)
 --><!-- Title: %0 Pages: 1 --><svg xmlns="http://www.w3.org/2000/svg" xmlns:xlink="http://www.w3.org/1999/xlink" width="1101pt" height="620pt" viewBox="0.00 0.00 1101.42 620.00">
<g id="graph0" class="graph" transform="scale(1 1) rotate(0) translate(4 616)">
<title>%0</title>
<polygon fill="#ffffff" stroke="transparent" points="-4,4 -4,-616 1097.4181,-616 1097.4181,4 -4,4"/>
<!-- [root] aws_alb.webserver&#45;alb (expand) -->
<g id="node1" class="node">
<title>[root] aws_alb.webserver-alb (expand)</title>
<polygon fill="none" stroke="#000000" points="858.0865,-396 713.7797,-396 713.7797,-360 858.0865,-360 858.0865,-396"/>
<text text-anchor="middle" x="785.9331" y="-373.8" font-family="Times,serif" font-size="14.00" fill="#000000">aws_alb.webserver-alb</text>
</g>
<!-- [root] aws_security_group.alb_sec&#45;grp (expand) -->
<g id="node7" class="node">
<title>[root] aws_security_group.alb_sec-grp (expand)</title>
<polygon fill="none" stroke="#000000" points="759.4758,-252 562.3904,-252 562.3904,-216 759.4758,-216 759.4758,-252"/>
<text text-anchor="middle" x="660.9331" y="-229.8" font-family="Times,serif" font-size="14.00" fill="#000000">aws_security_group.alb_sec-grp</text>
</g>
<!-- [root] aws_alb.webserver&#45;alb (expand)&#45;&gt;[root] aws_security_group.alb_sec&#45;grp (expand) -->
<g id="edge1" class="edge">
<title>[root] aws_alb.webserver-alb (expand)-&gt;[root] aws_security_group.alb_sec-grp (expand)</title>
<path fill="none" stroke="#000000" d="M817.3892,-359.9802C829.9643,-350.9479 843.072,-338.7662 849.9331,-324 856.6752,-309.4899 859.5682,-300.7736 849.9331,-288 839.1791,-273.7432 805.6286,-262.1179 769.7187,-253.3554"/>
<polygon fill="#000000" stroke="#000000" points="770.0807,-249.845 759.5447,-250.9601 768.4764,-256.6587 770.0807,-249.845"/>
</g>
<!-- [root] data.aws_subnets.phonebook (expand) -->
<g id="node11" class="node">
<title>[root] data.aws_subnets.phonebook (expand)</title>
<polygon fill="none" stroke="#000000" points="956.7279,-252 777.1383,-252 777.1383,-216 956.7279,-216 956.7279,-252"/>
<text text-anchor="middle" x="866.9331" y="-229.8" font-family="Times,serif" font-size="14.00" fill="#000000">data.aws_subnets.phonebook</text>
</g>
<!-- [root] aws_alb.webserver&#45;alb (expand)&#45;&gt;[root] data.aws_subnets.phonebook (expand) -->
<g id="edge2" class="edge">
<title>[root] aws_alb.webserver-alb (expand)-&gt;[root] data.aws_subnets.phonebook (expand)</title>
<path fill="none" stroke="#000000" d="M840.9987,-359.9074C857.4053,-351.6534 873.5079,-340.0344 882.9331,-324 894.096,-305.0096 888.4499,-280.1537 880.9409,-261.376"/>
<polygon fill="#000000" stroke="#000000" points="884.1323,-259.9381 876.9236,-252.1737 877.717,-262.7388 884.1323,-259.9381"/>
</g>
<!-- [root] aws_alb_listener.webserver&#45;listener (expand) -->
<g id="node2" class="node">
<title>[root] aws_alb_listener.webserver-listener (expand)</title>
<polygon fill="none" stroke="#000000" points="1093.3933,-468 876.4729,-468 876.4729,-432 1093.3933,-432 1093.3933,-468"/>
<text text-anchor="middle" x="984.9331" y="-445.8" font-family="Times,serif" font-size="14.00" fill="#000000">aws_alb_listener.webserver-listener</text>
</g>
<!-- [root] aws_alb_listener.webserver&#45;listener (expand)&#45;&gt;[root] aws_alb.webserver&#45;alb (expand) -->
<g id="edge3" class="edge">
<title>[root] aws_alb_listener.webserver-listener (expand)-&gt;[root] aws_alb.webserver-alb (expand)</title>
<path fill="none" stroke="#000000" d="M934.9739,-431.9243C907.7694,-422.0815 873.9314,-409.8386 845.3769,-399.5073"/>
<polygon fill="#000000" stroke="#000000" points="846.5072,-396.1943 835.9129,-396.0831 844.1255,-402.7767 846.5072,-396.1943"/>
</g>
<!-- [root] aws_alb_target_group.webserver&#45;tg (expand) -->
<g id="node3" class="node">
<title>[root] aws_alb_target_group.webserver-tg (expand)</title>
<polygon fill="none" stroke="#000000" points="1093.4031,-396 876.4631,-396 876.4631,-360 1093.4031,-360 1093.4031,-396"/>
<text text-anchor="middle" x="984.9331" y="-373.8" font-family="Times,serif" font-size="14.00" fill="#000000">aws_alb_target_group.webserver-tg</text>
</g>
<!-- [root] aws_alb_listener.webserver&#45;listener (expand)&#45;&gt;[root] aws_alb_target_group.webserver&#45;tg (expand) -->
<g id="edge4" class="edge">
<title>[root] aws_alb_listener.webserver-listener (expand)-&gt;[root] aws_alb_target_group.webserver-tg (expand)</title>
<path fill="none" stroke="#000000" d="M984.9331,-431.8314C984.9331,-424.131 984.9331,-414.9743 984.9331,-406.4166"/>
<polygon fill="#000000" stroke="#000000" points="988.4332,-406.4132 984.9331,-396.4133 981.4332,-406.4133 988.4332,-406.4132"/>
</g>
<!-- [root] data.aws_vpc.default (expand) -->
<g id="node12" class="node">
<title>[root] data.aws_vpc.default (expand)</title>
<polygon fill="none" stroke="#000000" points="831.1044,-180 696.7618,-180 696.7618,-144 831.1044,-144 831.1044,-180"/>
<text text-anchor="middle" x="763.9331" y="-157.8" font-family="Times,serif" font-size="14.00" fill="#000000">data.aws_vpc.default</text>
</g>
<!-- [root] aws_alb_target_group.webserver&#45;tg (expand)&#45;&gt;[root] data.aws_vpc.default (expand) -->
<g id="edge5" class="edge">
<title>[root] aws_alb_target_group.webserver-tg (expand)-&gt;[root] data.aws_vpc.default (expand)</title>
<path fill="none" stroke="#000000" d="M988.7241,-359.8833C994.4787,-326.9507 1001.3184,-256.9057 965.9331,-216 949.3804,-196.8649 890.9613,-182.5576 841.1776,-173.4941"/>
<polygon fill="#000000" stroke="#000000" points="841.4851,-169.9941 831.0278,-171.6956 840.2637,-176.8867 841.4851,-169.9941"/>
</g>
<!-- [root] aws_autoscaling_group.webserver&#45;asg (expand) -->
<g id="node4" class="node">
<title>[root] aws_autoscaling_group.webserver-asg (expand)</title>
<polygon fill="none" stroke="#000000" points="857.9562,-468 625.91,-468 625.91,-432 857.9562,-432 857.9562,-468"/>
<text text-anchor="middle" x="741.9331" y="-445.8" font-family="Times,serif" font-size="14.00" fill="#000000">aws_autoscaling_group.webserver-asg</text>
</g>
<!-- [root] aws_autoscaling_group.webserver&#45;asg (expand)&#45;&gt;[root] aws_alb.webserver&#45;alb (expand) -->
<g id="edge6" class="edge">
<title>[root] aws_autoscaling_group.webserver-asg (expand)-&gt;[root] aws_alb.webserver-alb (expand)</title>
<path fill="none" stroke="#000000" d="M753.0362,-431.8314C758.0005,-423.7079 763.9553,-413.9637 769.4259,-405.0118"/>
<polygon fill="#000000" stroke="#000000" points="772.4525,-406.7712 774.6805,-396.4133 766.4795,-403.121 772.4525,-406.7712"/>
</g>
<!-- [root] aws_autoscaling_group.webserver&#45;asg (expand)&#45;&gt;[root] aws_alb_target_group.webserver&#45;tg (expand) -->
<g id="edge7" class="edge">
<title>[root] aws_autoscaling_group.webserver-asg (expand)-&gt;[root] aws_alb_target_group.webserver-tg (expand)</title>
<path fill="none" stroke="#000000" d="M802.9386,-431.9243C836.7359,-421.9103 878.9175,-409.412 914.1593,-398.97"/>
<polygon fill="#000000" stroke="#000000" points="915.3088,-402.2799 923.9025,-396.0831 913.3202,-395.5683 915.3088,-402.2799"/>
</g>
<!-- [root] aws_launch_template.ec2_lt (expand) -->
<g id="node6" class="node">
<title>[root] aws_launch_template.ec2_lt (expand)</title>
<polygon fill="none" stroke="#000000" points="553.4353,-396 378.4309,-396 378.4309,-360 553.4353,-360 553.4353,-396"/>
<text text-anchor="middle" x="465.9331" y="-373.8" font-family="Times,serif" font-size="14.00" fill="#000000">aws_launch_template.ec2_lt</text>
</g>
<!-- [root] aws_autoscaling_group.webserver&#45;asg (expand)&#45;&gt;[root] aws_launch_template.ec2_lt (expand) -->
<g id="edge8" class="edge">
<title>[root] aws_autoscaling_group.webserver-asg (expand)-&gt;[root] aws_launch_template.ec2_lt (expand)</title>
<path fill="none" stroke="#000000" d="M672.6429,-431.9243C633.8458,-421.8033 585.3211,-409.1447 545.038,-398.6361"/>
<polygon fill="#000000" stroke="#000000" points="545.8115,-395.2208 535.2518,-396.0831 544.0445,-401.9941 545.8115,-395.2208"/>
</g>
<!-- [root] aws_db_instance.webserver&#45;db (expand) -->
<g id="node5" class="node">
<title>[root] aws_db_instance.webserver-db (expand)</title>
<polygon fill="none" stroke="#000000" points="591.7456,-468 400.1206,-468 400.1206,-432 591.7456,-432 591.7456,-468"/>
<text text-anchor="middle" x="495.9331" y="-445.8" font-family="Times,serif" font-size="14.00" fill="#000000">aws_db_instance.webserver-db</text>
</g>
<!-- [root] aws_security_group.db_sec&#45;grp (expand) -->
<g id="node8" class="node">
<title>[root] aws_security_group.db_sec-grp (expand)</title>
<polygon fill="none" stroke="#000000" points="279.3706,-396 84.4956,-396 84.4956,-360 279.3706,-360 279.3706,-396"/>
<text text-anchor="middle" x="181.9331" y="-373.8" font-family="Times,serif" font-size="14.00" fill="#000000">aws_security_group.db_sec-grp</text>
</g>
<!-- [root] aws_db_instance.webserver&#45;db (expand)&#45;&gt;[root] aws_security_group.db_sec&#45;grp (expand) -->
<g id="edge9" class="edge">
<title>[root] aws_db_instance.webserver-db (expand)-&gt;[root] aws_security_group.db_sec-grp (expand)</title>
<path fill="none" stroke="#000000" d="M417.1029,-431.9243C372.5063,-421.6983 316.612,-408.8818 270.506,-398.3097"/>
<polygon fill="#000000" stroke="#000000" points="271.0526,-394.8443 260.5233,-396.0207 269.4881,-401.6672 271.0526,-394.8443"/>
</g>
<!-- [root] aws_security_group.ec2_sec&#45;grp (expand) -->
<g id="node9" class="node">
<title>[root] aws_security_group.ec2_sec-grp (expand)</title>
<polygon fill="none" stroke="#000000" points="199.7993,-324 .0669,-324 .0669,-288 199.7993,-288 199.7993,-324"/>
<text text-anchor="middle" x="99.9331" y="-301.8" font-family="Times,serif" font-size="14.00" fill="#000000">aws_security_group.ec2_sec-grp</text>
</g>
<!-- [root] aws_launch_template.ec2_lt (expand)&#45;&gt;[root] aws_security_group.ec2_sec&#45;grp (expand) -->
<g id="edge10" class="edge">
<title>[root] aws_launch_template.ec2_lt (expand)-&gt;[root] aws_security_group.ec2_sec-grp (expand)</title>
<path fill="none" stroke="#000000" d="M378.267,-360.7542C325.0997,-350.2951 257.0374,-336.9058 201.5267,-325.9856"/>
<polygon fill="#000000" stroke="#000000" points="202.1571,-322.5426 191.6695,-324.0465 200.8059,-329.411 202.1571,-322.5426"/>
</g>
<!-- [root] data.aws_ami.amazon&#45;linux&#45;2 (expand) -->
<g id="node10" class="node">
<title>[root] data.aws_ami.amazon-linux-2 (expand)</title>
<polygon fill="none" stroke="#000000" points="432.1515,-252 247.7147,-252 247.7147,-216 432.1515,-216 432.1515,-252"/>
<text text-anchor="middle" x="339.9331" y="-229.8" font-family="Times,serif" font-size="14.00" fill="#000000">data.aws_ami.amazon-linux-2</text>
</g>
<!-- [root] aws_launch_template.ec2_lt (expand)&#45;&gt;[root] data.aws_ami.amazon&#45;linux&#45;2 (expand) -->
<g id="edge11" class="edge">
<title>[root] aws_launch_template.ec2_lt (expand)-&gt;[root] data.aws_ami.amazon-linux-2 (expand)</title>
<path fill="none" stroke="#000000" d="M378.3923,-367.4852C324.8075,-359.0458 263.445,-345.0779 246.9331,-324 237.0662,-311.4046 238.9502,-301.8663 246.9331,-288 254.3503,-275.1163 266.1506,-265.0231 278.8898,-257.2309"/>
<polygon fill="#000000" stroke="#000000" points="280.8249,-260.1579 287.8169,-252.1978 277.387,-254.0602 280.8249,-260.1579"/>
</g>
<!-- [root] var.instance_keypair -->
<g id="node15" class="node">
<title>[root] var.instance_keypair</title>
<polygon fill="none" stroke="#000000" points="382.1585,-324 255.7077,-324 255.7077,-288 388.1585,-288 388.1585,-318 382.1585,-324"/>
<polyline fill="none" stroke="#000000" points="382.1585,-324 382.1585,-318 "/>
<polyline fill="none" stroke="#000000" points="388.1585,-318 382.1585,-318 "/>
<text text-anchor="middle" x="321.9331" y="-301.8" font-family="Times,serif" font-size="14.00" fill="#000000">var.instance_keypair</text>
</g>
<!-- [root] aws_launch_template.ec2_lt (expand)&#45;&gt;[root] var.instance_keypair -->
<g id="edge12" class="edge">
<title>[root] aws_launch_template.ec2_lt (expand)-&gt;[root] var.instance_keypair</title>
<path fill="none" stroke="#000000" d="M429.5958,-359.8314C410.5935,-350.3302 387.1573,-338.6121 367.0079,-328.5374"/>
<polygon fill="#000000" stroke="#000000" points="368.5186,-325.3797 358.0091,-324.038 365.3881,-331.6407 368.5186,-325.3797"/>
</g>
<!-- [root] var.instance_name -->
<g id="node16" class="node">
<title>[root] var.instance_name</title>
<polygon fill="none" stroke="#000000" points="519.9985,-324 405.8677,-324 405.8677,-288 525.9985,-288 525.9985,-318 519.9985,-324"/>
<polyline fill="none" stroke="#000000" points="519.9985,-324 519.9985,-318 "/>
<polyline fill="none" stroke="#000000" points="525.9985,-318 519.9985,-318 "/>
<text text-anchor="middle" x="465.9331" y="-301.8" font-family="Times,serif" font-size="14.00" fill="#000000">var.instance_name</text>
</g>
<!-- [root] aws_launch_template.ec2_lt (expand)&#45;&gt;[root] var.instance_name -->
<g id="edge13" class="edge">
<title>[root] aws_launch_template.ec2_lt (expand)-&gt;[root] var.instance_name</title>
<path fill="none" stroke="#000000" d="M465.9331,-359.8314C465.9331,-352.131 465.9331,-342.9743 465.9331,-334.4166"/>
<polygon fill="#000000" stroke="#000000" points="469.4332,-334.4132 465.9331,-324.4133 462.4332,-334.4133 469.4332,-334.4132"/>
</g>
<!-- [root] var.instance_type -->
<g id="node17" class="node">
<title>[root] var.instance_type</title>
<polygon fill="none" stroke="#000000" points="652.2836,-324 543.5826,-324 543.5826,-288 658.2836,-288 658.2836,-318 652.2836,-324"/>
<polyline fill="none" stroke="#000000" points="652.2836,-324 652.2836,-318 "/>
<polyline fill="none" stroke="#000000" points="658.2836,-318 652.2836,-318 "/>
<text text-anchor="middle" x="600.9331" y="-301.8" font-family="Times,serif" font-size="14.00" fill="#000000">var.instance_type</text>
</g>
<!-- [root] aws_launch_template.ec2_lt (expand)&#45;&gt;[root] var.instance_type -->
<g id="edge14" class="edge">
<title>[root] aws_launch_template.ec2_lt (expand)-&gt;[root] var.instance_type</title>
<path fill="none" stroke="#000000" d="M499.9993,-359.8314C517.5864,-350.4516 539.2247,-338.9112 557.9499,-328.9244"/>
<polygon fill="#000000" stroke="#000000" points="559.7013,-331.957 566.8778,-324.1628 556.4072,-325.7805 559.7013,-331.957"/>
</g>
<!-- [root] var.launch&#45;template_name -->
<g id="node18" class="node">
<title>[root] var.launch-template_name</title>
<polygon fill="none" stroke="#000000" points="835.3147,-324 676.5515,-324 676.5515,-288 841.3147,-288 841.3147,-318 835.3147,-324"/>
<polyline fill="none" stroke="#000000" points="835.3147,-324 835.3147,-318 "/>
<polyline fill="none" stroke="#000000" points="841.3147,-318 835.3147,-318 "/>
<text text-anchor="middle" x="758.9331" y="-301.8" font-family="Times,serif" font-size="14.00" fill="#000000">var.launch-template_name</text>
</g>
<!-- [root] aws_launch_template.ec2_lt (expand)&#45;&gt;[root] var.launch&#45;template_name -->
<g id="edge15" class="edge">
<title>[root] aws_launch_template.ec2_lt (expand)-&gt;[root] var.launch-template_name</title>
<path fill="none" stroke="#000000" d="M539.4912,-359.9243C580.9308,-349.7412 632.8242,-336.9892 675.7422,-326.4428"/>
<polygon fill="#000000" stroke="#000000" points="676.7231,-329.806 685.5989,-324.0207 675.0526,-323.0082 676.7231,-329.806"/>
</g>
<!-- [root] aws_security_group.alb_sec&#45;grp (expand)&#45;&gt;[root] data.aws_vpc.default (expand) -->
<g id="edge16" class="edge">
<title>[root] aws_security_group.alb_sec-grp (expand)-&gt;[root] data.aws_vpc.default (expand)</title>
<path fill="none" stroke="#000000" d="M686.9243,-215.8314C699.8547,-206.7927 715.6553,-195.7476 729.5714,-186.0198"/>
<polygon fill="#000000" stroke="#000000" points="731.7594,-188.7608 737.9502,-180.1628 727.7488,-183.0235 731.7594,-188.7608"/>
</g>
<!-- [root] aws_security_group.db_sec&#45;grp (expand)&#45;&gt;[root] aws_security_group.ec2_sec&#45;grp (expand) -->
<g id="edge17" class="edge">
<title>[root] aws_security_group.db_sec-grp (expand)-&gt;[root] aws_security_group.ec2_sec-grp (expand)</title>
<path fill="none" stroke="#000000" d="M161.241,-359.8314C151.2383,-351.0485 139.0781,-340.3712 128.2332,-330.8489"/>
<polygon fill="#000000" stroke="#000000" points="130.4423,-328.1308 120.6185,-324.1628 125.8237,-333.3909 130.4423,-328.1308"/>
</g>
<!-- [root] aws_security_group.ec2_sec&#45;grp (expand)&#45;&gt;[root] aws_security_group.alb_sec&#45;grp (expand) -->
<g id="edge18" class="edge">
<title>[root] aws_security_group.ec2_sec-grp (expand)-&gt;[root] aws_security_group.alb_sec-grp (expand)</title>
<path fill="none" stroke="#000000" d="M199.9053,-293.1693C298.9851,-280.4532 450.3144,-261.0313 552.3082,-247.9412"/>
<polygon fill="#000000" stroke="#000000" points="552.8563,-251.3996 562.3294,-246.655 551.9652,-244.4566 552.8563,-251.3996"/>
</g>
<!-- [root] provider[&quot;registry.terraform.io/hashicorp/aws&quot;] -->
<g id="node13" class="node">
<title>[root] provider["registry.terraform.io/hashicorp/aws"]</title>
<polygon fill="none" stroke="#000000" points="658.9331,-108 383.9426,-90 658.9331,-72 933.9236,-90 658.9331,-108"/>
<text text-anchor="middle" x="658.9331" y="-85.8" font-family="Times,serif" font-size="14.00" fill="#000000">provider["registry.terraform.io/hashicorp/aws"]</text>
</g>
<!-- [root] data.aws_ami.amazon&#45;linux&#45;2 (expand)&#45;&gt;[root] provider[&quot;registry.terraform.io/hashicorp/aws&quot;] -->
<g id="edge19" class="edge">
<title>[root] data.aws_ami.amazon-linux-2 (expand)-&gt;[root] provider["registry.terraform.io/hashicorp/aws"]</title>
<path fill="none" stroke="#000000" d="M380.0117,-215.9081C439.8584,-188.8927 552.1902,-138.1849 614.4829,-110.0653"/>
<polygon fill="#000000" stroke="#000000" points="615.9924,-113.224 623.6667,-105.9196 613.1123,-106.844 615.9924,-113.224"/>
</g>
<!-- [root] data.aws_subnets.phonebook (expand)&#45;&gt;[root] data.aws_vpc.default (expand) -->
<g id="edge20" class="edge">
<title>[root] data.aws_subnets.phonebook (expand)-&gt;[root] data.aws_vpc.default (expand)</title>
<path fill="none" stroke="#000000" d="M840.9419,-215.8314C828.0115,-206.7927 812.2109,-195.7476 798.2948,-186.0198"/>
<polygon fill="#000000" stroke="#000000" points="800.1174,-183.0235 789.916,-180.1628 796.1068,-188.7608 800.1174,-183.0235"/>
</g>
<!-- [root] data.aws_vpc.default (expand)&#45;&gt;[root] provider[&quot;registry.terraform.io/hashicorp/aws&quot;] -->
<g id="edge21" class="edge">
<title>[root] data.aws_vpc.default (expand)-&gt;[root] provider["registry.terraform.io/hashicorp/aws"]</title>
<path fill="none" stroke="#000000" d="M737.4372,-143.8314C723.4204,-134.2198 706.0951,-122.3396 691.2893,-112.1871"/>
<polygon fill="#000000" stroke="#000000" points="693.1337,-109.208 682.907,-106.4393 689.175,-114.9812 693.1337,-109.208"/>
</g>
<!-- [root] var.aws_region -->
<g id="node14" class="node">
<title>[root] var.aws_region</title>
<polygon fill="none" stroke="#000000" points="703.8399,-36 608.0263,-36 608.0263,0 709.8399,0 709.8399,-30 703.8399,-36"/>
<polyline fill="none" stroke="#000000" points="703.8399,-36 703.8399,-30 "/>
<polyline fill="none" stroke="#000000" points="709.8399,-30 703.8399,-30 "/>
<text text-anchor="middle" x="658.9331" y="-13.8" font-family="Times,serif" font-size="14.00" fill="#000000">var.aws_region</text>
</g>
<!-- [root] provider[&quot;registry.terraform.io/hashicorp/aws&quot;]&#45;&gt;[root] var.aws_region -->
<g id="edge26" class="edge">
<title>[root] provider["registry.terraform.io/hashicorp/aws"]-&gt;[root] var.aws_region</title>
<path fill="none" stroke="#000000" d="M658.9331,-71.8314C658.9331,-64.131 658.9331,-54.9743 658.9331,-46.4166"/>
<polygon fill="#000000" stroke="#000000" points="662.4332,-46.4132 658.9331,-36.4133 655.4332,-46.4133 662.4332,-46.4132"/>
</g>
<!-- [root] output.application&#45;load&#45;balancer_dns (expand) -->
<g id="node19" class="node">
<title>[root] output.application-load-balancer_dns (expand)</title>
<ellipse fill="none" stroke="#000000" cx="275.9331" cy="-522" rx="216.3426" ry="18"/>
<text text-anchor="middle" x="275.9331" y="-517.8" font-family="Times,serif" font-size="14.00" fill="#000000">[root] output.application-load-balancer_dns (expand)</text>
</g>
<!-- [root] output.application&#45;load&#45;balancer_dns (expand)&#45;&gt;[root] aws_alb.webserver&#45;alb (expand) -->
<g id="edge22" class="edge">
<title>[root] output.application-load-balancer_dns (expand)-&gt;[root] aws_alb.webserver-alb (expand)</title>
<path fill="none" stroke="#000000" d="M292.7078,-504.0353C313.5485,-482.9635 351.2352,-448.782 390.9331,-432 445.6558,-408.8664 604.6192,-392.4755 703.4056,-384.1873"/>
<polygon fill="#000000" stroke="#000000" points="703.9833,-387.6515 713.6602,-383.3378 703.4053,-380.6754 703.9833,-387.6515"/>
</g>
<!-- [root] provider[&quot;registry.terraform.io/hashicorp/aws&quot;] (close) -->
<g id="node20" class="node">
<title>[root] provider["registry.terraform.io/hashicorp/aws"] (close)</title>
<ellipse fill="none" stroke="#000000" cx="757.9331" cy="-522" rx="247.2168" ry="18"/>
<text text-anchor="middle" x="757.9331" y="-517.8" font-family="Times,serif" font-size="14.00" fill="#000000">[root] provider["registry.terraform.io/hashicorp/aws"] (close)</text>
</g>
<!-- [root] provider[&quot;registry.terraform.io/hashicorp/aws&quot;] (close)&#45;&gt;[root] aws_alb_listener.webserver&#45;listener (expand) -->
<g id="edge23" class="edge">
<title>[root] provider["registry.terraform.io/hashicorp/aws"] (close)-&gt;[root] aws_alb_listener.webserver-listener (expand)</title>
<path fill="none" stroke="#000000" d="M813.4635,-504.3868C845.1213,-494.3456 885.004,-481.6956 918.3372,-471.1229"/>
<polygon fill="#000000" stroke="#000000" points="919.5289,-474.4169 928.0027,-468.0572 917.4125,-467.7444 919.5289,-474.4169"/>
</g>
<!-- [root] provider[&quot;registry.terraform.io/hashicorp/aws&quot;] (close)&#45;&gt;[root] aws_autoscaling_group.webserver&#45;asg (expand) -->
<g id="edge24" class="edge">
<title>[root] provider["registry.terraform.io/hashicorp/aws"] (close)-&gt;[root] aws_autoscaling_group.webserver-asg (expand)</title>
<path fill="none" stroke="#000000" d="M753.8956,-503.8314C752.1844,-496.131 750.1496,-486.9743 748.2479,-478.4166"/>
<polygon fill="#000000" stroke="#000000" points="751.611,-477.4159 746.0249,-468.4133 744.7777,-478.9344 751.611,-477.4159"/>
</g>
<!-- [root] provider[&quot;registry.terraform.io/hashicorp/aws&quot;] (close)&#45;&gt;[root] aws_db_instance.webserver&#45;db (expand) -->
<g id="edge25" class="edge">
<title>[root] provider["registry.terraform.io/hashicorp/aws"] (close)-&gt;[root] aws_db_instance.webserver-db (expand)</title>
<path fill="none" stroke="#000000" d="M694.5102,-504.5708C657.3732,-494.3652 610.2583,-481.4176 571.242,-470.6956"/>
<polygon fill="#000000" stroke="#000000" points="572.078,-467.2956 561.508,-468.0206 570.2231,-474.0454 572.078,-467.2956"/>
</g>
<!-- [root] root -->
<g id="node21" class="node">
<title>[root] root</title>
<ellipse fill="none" stroke="#000000" cx="516.9331" cy="-594" rx="50.9823" ry="18"/>
<text text-anchor="middle" x="516.9331" y="-589.8" font-family="Times,serif" font-size="14.00" fill="#000000">[root] root</text>
</g>
<!-- [root] root&#45;&gt;[root] output.application&#45;load&#45;balancer_dns (expand) -->
<g id="edge27" class="edge">
<title>[root] root-&gt;[root] output.application-load-balancer_dns (expand)</title>
<path fill="none" stroke="#000000" d="M477.9444,-582.3519C441.7796,-571.5475 387.1744,-555.2339 343.8503,-542.2906"/>
<polygon fill="#000000" stroke="#000000" points="344.8103,-538.9246 334.2268,-539.4156 342.8065,-545.6317 344.8103,-538.9246"/>
</g>
<!-- [root] root&#45;&gt;[root] provider[&quot;registry.terraform.io/hashicorp/aws&quot;] (close) -->
<g id="edge28" class="edge">
<title>[root] root-&gt;[root] provider["registry.terraform.io/hashicorp/aws"] (close)</title>
<path fill="none" stroke="#000000" d="M555.9218,-582.3519C591.9628,-571.5845 646.318,-555.3456 689.5704,-542.4237"/>
<polygon fill="#000000" stroke="#000000" points="690.6011,-545.7687 699.1808,-539.5526 688.5973,-539.0616 690.6011,-545.7687"/>
</g>
</g>
</svg>